<svg id="Capa_2" data-name="Capa 2" xmlns="http://www.w3.org/2000/svg" xmlns:xlink="http://www.w3.org/1999/xlink" viewBox="0 0 177.19 184.13"><defs><style>.cls-1,.cls-13,.cls-2{fill:none;}.cls-1,.cls-10,.cls-11,.cls-12,.cls-13,.cls-14,.cls-15,.cls-16,.cls-17,.cls-18,.cls-19,.cls-2,.cls-20,.cls-21,.cls-22,.cls-23,.cls-24,.cls-25,.cls-26,.cls-27,.cls-28,.cls-29,.cls-3,.cls-30,.cls-31,.cls-32,.cls-33,.cls-4,.cls-5,.cls-6,.cls-7,.cls-8,.cls-9{stroke:#1d1d1b;stroke-miterlimit:10;}.cls-1{stroke-width:0.75px;}.cls-2{stroke-width:0.25px;}.cls-10,.cls-11,.cls-12,.cls-13,.cls-14,.cls-15,.cls-16,.cls-17,.cls-18,.cls-19,.cls-20,.cls-21,.cls-22,.cls-23,.cls-24,.cls-25,.cls-26,.cls-27,.cls-28,.cls-29,.cls-3,.cls-30,.cls-31,.cls-32,.cls-33,.cls-4,.cls-5,.cls-6,.cls-7,.cls-8,.cls-9{stroke-width:0.5px;}.cls-3{fill:url(#Nueva_muestra_de_degradado_4);}.cls-4{fill:url(#Nueva_muestra_de_degradado_4-2);}.cls-5{fill:url(#Nueva_muestra_de_degradado_3);}.cls-6{fill:url(#Nueva_muestra_de_degradado_3-2);}.cls-7{fill:url(#Nueva_muestra_de_degradado_7);}.cls-8{fill:url(#Nueva_muestra_de_degradado_5);}.cls-9{fill:url(#Nueva_muestra_de_degradado_5-2);}.cls-10{fill:url(#Nueva_muestra_de_degradado_8);}.cls-11{fill:url(#Nueva_muestra_de_degradado_8-2);}.cls-12{fill:#fff;}.cls-14{fill:url(#Nueva_muestra_de_degradado_4-3);}.cls-15{fill:url(#Nueva_muestra_de_degradado_4-4);}.cls-16{fill:url(#Degradado_sin_nombre_123);}.cls-17{fill:url(#Nueva_muestra_de_degradado_5-3);}.cls-18{fill:url(#Degradado_sin_nombre_543);}.cls-19{fill:url(#Nueva_muestra_de_degradado_7-2);}.cls-20{fill:url(#Nueva_muestra_de_degradado_4-5);}.cls-21{fill:url(#Nueva_muestra_de_degradado_3-3);}.cls-22{fill:url(#Degradado_sin_nombre_123-2);}.cls-23{fill:url(#Nueva_muestra_de_degradado_7-3);}.cls-24{fill:url(#Nueva_muestra_de_degradado_5-4);}.cls-25{fill:url(#Nueva_muestra_de_degradado_4-6);}.cls-26{fill:url(#Nueva_muestra_de_degradado_7-4);}.cls-27{fill:url(#Degradado_sin_nombre_123-3);}.cls-28{fill:url(#Nueva_muestra_de_degradado_4-7);}.cls-29{fill:url(#Degradado_sin_nombre_541);}.cls-30{fill:url(#Degradado_sin_nombre_543-2);}.cls-31{fill:url(#Nueva_muestra_de_degradado_5-5);}.cls-32{fill:url(#Nueva_muestra_de_degradado_8-3);}.cls-33{fill:#f6f7f7;}</style><linearGradient id="Nueva_muestra_de_degradado_4" x1="271.26" y1="185.5" x2="341.35" y2="185.5" gradientUnits="userSpaceOnUse"><stop offset="0" stop-color="#fbd71b"/><stop offset="0.51" stop-color="#f4ae20"/><stop offset="0.98" stop-color="#efab2c"/></linearGradient><linearGradient id="Nueva_muestra_de_degradado_4-2" x1="281.54" y1="176.4" x2="349.7" y2="176.4" xlink:href="#Nueva_muestra_de_degradado_4"/><linearGradient id="Nueva_muestra_de_degradado_3" x1="275.57" y1="192.36" x2="309.43" y2="192.36" gradientUnits="userSpaceOnUse"><stop offset="0" stop-color="#ef7e2d"/><stop offset="0.51" stop-color="#f49721"/><stop offset="1" stop-color="#fab91c"/></linearGradient><linearGradient id="Nueva_muestra_de_degradado_3-2" x1="266.55" y1="201.74" x2="315.63" y2="201.74" xlink:href="#Nueva_muestra_de_degradado_3"/><linearGradient id="Nueva_muestra_de_degradado_7" x1="282.16" y1="210.31" x2="379.2" y2="210.31" gradientUnits="userSpaceOnUse"><stop offset="0" stop-color="#3abcd9"/><stop offset="0.53" stop-color="#336fb6"/><stop offset="0.98" stop-color="#3565ae"/></linearGradient><linearGradient id="Nueva_muestra_de_degradado_5" x1="285.74" y1="214.28" x2="331.72" y2="214.28" gradientUnits="userSpaceOnUse"><stop offset="0" stop-color="#abdbe2"/><stop offset="0.06" stop-color="#93d4e1"/><stop offset="0.14" stop-color="#78cbdf"/><stop offset="0.22" stop-color="#65c6de"/><stop offset="0.3" stop-color="#5ac2dd"/><stop offset="0.39" stop-color="#56c1dd"/><stop offset="0.65" stop-color="#51bbdb"/><stop offset="0.98" stop-color="#3565ae"/></linearGradient><linearGradient id="Nueva_muestra_de_degradado_5-2" x1="301.17" y1="229.33" x2="395.16" y2="229.33" xlink:href="#Nueva_muestra_de_degradado_5"/><linearGradient id="Nueva_muestra_de_degradado_8" x1="312.49" y1="180.04" x2="312.49" y2="180.04" gradientUnits="userSpaceOnUse"><stop offset="0" stop-color="#ffd103"/><stop offset="0.12" stop-color="#fcbe13"/><stop offset="0.25" stop-color="#fab31d"/><stop offset="0.39" stop-color="#f9af20"/><stop offset="0.66" stop-color="#51bbdb"/><stop offset="0.98" stop-color="#3565ae"/></linearGradient><linearGradient id="Nueva_muestra_de_degradado_8-2" x1="95.55" y1="95.53" x2="95.55" y2="110.74" xlink:href="#Nueva_muestra_de_degradado_8"/><linearGradient id="Nueva_muestra_de_degradado_4-3" x1="260.46" y1="85.67" x2="274.02" y2="99.23" gradientTransform="translate(47.11 -20.67) rotate(17.22)" xlink:href="#Nueva_muestra_de_degradado_4"/><linearGradient id="Nueva_muestra_de_degradado_4-4" x1="241.39" y1="86.58" x2="275.24" y2="86.58" gradientTransform="translate(47.11 -20.67) rotate(17.22)" xlink:href="#Nueva_muestra_de_degradado_4"/><linearGradient id="Degradado_sin_nombre_123" x1="255.95" y1="83.98" x2="279.5" y2="83.98" gradientTransform="translate(47.11 -20.67) rotate(17.22)" gradientUnits="userSpaceOnUse"><stop offset="0" stop-color="#fab91c"/><stop offset="0.49" stop-color="#f49721"/><stop offset="1" stop-color="#ef7e2d"/></linearGradient><linearGradient id="Nueva_muestra_de_degradado_5-3" x1="308.92" y1="274.22" x2="318.75" y2="274.22" gradientTransform="translate(-33.42 19.46) rotate(-7.38)" xlink:href="#Nueva_muestra_de_degradado_5"/><linearGradient id="Degradado_sin_nombre_543" x1="304.49" y1="292.76" x2="323.57" y2="292.76" gradientTransform="translate(-41.66 24.98) rotate(-9.29)" gradientUnits="userSpaceOnUse"><stop offset="0" stop-color="#3abcd9"/><stop offset="0.3" stop-color="#336fb6"/><stop offset="0.98" stop-color="#3565ae"/></linearGradient><linearGradient id="Nueva_muestra_de_degradado_7-2" x1="301.63" y1="279.16" x2="310.19" y2="279.16" gradientTransform="translate(-33.42 19.46) rotate(-7.38)" xlink:href="#Nueva_muestra_de_degradado_7"/><linearGradient id="Nueva_muestra_de_degradado_4-5" x1="309.94" y1="132.94" x2="319.37" y2="142.37" xlink:href="#Nueva_muestra_de_degradado_4"/><linearGradient id="Nueva_muestra_de_degradado_3-3" x1="310.11" y1="147.64" x2="310.11" y2="101.04" xlink:href="#Nueva_muestra_de_degradado_3"/><linearGradient id="Degradado_sin_nombre_123-2" x1="310.91" y1="124.31" x2="326.72" y2="140.13" gradientTransform="matrix(1, 0, 0, 1, 0, 0)" xlink:href="#Degradado_sin_nombre_123"/><linearGradient id="Nueva_muestra_de_degradado_7-3" x1="239.36" y1="173.14" x2="257.49" y2="173.14" gradientTransform="translate(43.96 -8.99) rotate(11.77)" xlink:href="#Nueva_muestra_de_degradado_7"/><linearGradient id="Nueva_muestra_de_degradado_5-4" x1="219.46" y1="179.84" x2="259.43" y2="179.84" gradientTransform="translate(43.96 -8.99) rotate(11.77)" xlink:href="#Nueva_muestra_de_degradado_5"/><linearGradient id="Nueva_muestra_de_degradado_4-6" x1="228.14" y1="169.82" x2="255.67" y2="169.82" gradientTransform="translate(43.96 -8.99) rotate(11.77)" xlink:href="#Nueva_muestra_de_degradado_4"/><linearGradient id="Nueva_muestra_de_degradado_7-4" x1="235.46" y1="122.71" x2="254.62" y2="122.71" gradientTransform="translate(50.02 -10.49) rotate(15.8)" xlink:href="#Nueva_muestra_de_degradado_7"/><linearGradient id="Degradado_sin_nombre_123-3" x1="211.34" y1="125.17" x2="255.25" y2="125.17" gradientTransform="translate(50.02 -10.49) rotate(15.8)" xlink:href="#Degradado_sin_nombre_123"/><linearGradient id="Nueva_muestra_de_degradado_4-7" x1="224.07" y1="114.29" x2="254.53" y2="114.29" gradientTransform="translate(50.02 -10.49) rotate(15.8)" xlink:href="#Nueva_muestra_de_degradado_4"/><linearGradient id="Degradado_sin_nombre_541" x1="221.05" y1="125.15" x2="230.88" y2="125.15" gradientTransform="translate(174.45 3) rotate(37.63)" gradientUnits="userSpaceOnUse"><stop offset="0" stop-color="#ee741f"/><stop offset="0.53" stop-color="#f49721"/><stop offset="1" stop-color="#fab91c"/></linearGradient><linearGradient id="Degradado_sin_nombre_543-2" x1="217.27" y1="137.52" x2="236.34" y2="137.52" gradientTransform="translate(174.45 3) rotate(37.63)" xlink:href="#Degradado_sin_nombre_543"/><linearGradient id="Nueva_muestra_de_degradado_5-5" x1="213.75" y1="130.09" x2="222.31" y2="130.09" gradientTransform="translate(174.45 3) rotate(37.63)" xlink:href="#Nueva_muestra_de_degradado_5"/><linearGradient id="Nueva_muestra_de_degradado_8-3" x1="313.69" y1="172.34" x2="313.69" y2="207.15" xlink:href="#Nueva_muestra_de_degradado_8"/></defs><path class="cls-1" d="M124.05,319.87" transform="translate(-218.09 -102.54)"/><path class="cls-2" d="M-.26,131.32" transform="translate(-218.09 -102.54)"/><path class="cls-3" d="M341.35,165.27s-11.73-14.56-35-12.71c0,0-22.1,2.72-29.66,18.36,0,0-7.67,11.29-4.85,27.91,0,0,3.39,13.58,11.73,19.77,0,0-7.22-11.62-8.46-19.55,0,0-1.91-9,.57-15.75,0,0,4.85-16.84,18.6-23.57,0,0,11.39-6,27.52-2.93C321.84,156.8,328.16,157.56,341.35,165.27Z" transform="translate(-218.09 -102.54)"/><path class="cls-4" d="M349.7,181.4s-10.81-25.15-42.83-18.19c0,0-21.92,6.37-24.95,32,0,0-2.83-17.18,6.87-25.76,0,0,10.1-10.61,23.94-11.82C312.73,157.66,343.24,154.83,349.7,181.4Z" transform="translate(-218.09 -102.54)"/><path class="cls-5" d="M309.43,157.26a25.63,25.63,0,0,0-19.66,5.27s-6.6,5.1-9.6,11c0,0-5.69,8.77-4.41,23.13,0,0,.91,21.62,21.82,31.11,0,0-17.78-14.34-17.17-33.94,0,0-.31-15.25,8.38-24.34C288.79,169.48,298.86,160.18,309.43,157.26Z" transform="translate(-218.09 -102.54)"/><path class="cls-6" d="M277.68,166.36s-15.64,13.36-9.83,37.41a48.3,48.3,0,0,0,26.43,29.78s10.63,5.07,21.35,3.15c0,0-25.75-4.42-33.6-16.32,0,0-6.8-7.65-9-17.12C273,203.26,265.55,184.6,277.68,166.36Z" transform="translate(-218.09 -102.54)"/><path class="cls-7" d="M283.84,190.39s-3,10.34-1,17c0,0,5.84,14.68,16.35,19.42,0,0,13.23,5.26,23.53,2.43a72.58,72.58,0,0,0,14.24-6s9.9-4.45,15.16-1c0,0,13.73,9,21,7.8a35.88,35.88,0,0,0,6.06-.73s-16.16-1.82-21.92-7.58a16.5,16.5,0,0,0-14.14-4.54s-8.79,1.92-11.52,4.14c0,0-16.77,7.78-28.69,2.42,0,0-15.45-7.17-17.47-17.88C285.46,205.94,284.14,197.56,283.84,190.39Z" transform="translate(-218.09 -102.54)"/><path class="cls-8" d="M285.76,203.12s-1,9.2,10.27,16.57c0,0,8.22,8.44,26,4.87a96.8,96.8,0,0,0,9.74-4.07s-20.1,3.13-26,0C305.76,220.49,294.25,217.56,285.76,203.12Z" transform="translate(-218.09 -102.54)"/><path class="cls-9" d="M301.17,229.67s15.54,5.13,25.5,0c0,0,14.65-8.39,25.25-4.65,0,0,10.71,6.11,20.61,7.3,0,0,12.12-.67,22.63-4.59,0,0-15.57,9-27.88,6.38,0,0-6.86-1.52-11.52-3,0,0-11.51-5.1-15.65-2.47a48.46,48.46,0,0,0-10.88,5.05S309.82,237.24,301.17,229.67Z" transform="translate(-218.09 -102.54)"/><path class="cls-10" d="M312.49,180" transform="translate(-218.09 -102.54)"/><ellipse class="cls-11" cx="95.55" cy="103.13" rx="17.31" ry="7.61"/><ellipse class="cls-12" cx="95.59" cy="102.47" rx="10.74" ry="4.72"/><path class="cls-13" d="M217.34,229.06" transform="translate(-218.09 -102.54)"/><path class="cls-13" d="M250.15,128.11" transform="translate(-218.09 -102.54)"/><path class="cls-14" d="M282.42,153.68a7.79,7.79,0,0,1-7.38-1.23,9.46,9.46,0,0,1-3.72-6.86s-.31-6.14,2.33-9a29,29,0,0,0,1.07,9.87C276.21,151.05,282.42,153.68,282.42,153.68Z" transform="translate(-218.09 -102.54)"/><path class="cls-15" d="M280.71,155.36s-6,2.6-10,.34-5.53-10.94-5.53-10.94a22.29,22.29,0,0,1,.2-5.48s2.48-14-8.72-20.79c0,0,7.61,1.41,10.56,5.72a28.9,28.9,0,0,1,3.08,13.68,59,59,0,0,0-.61,10.51S270.71,155.77,280.71,155.36Z" transform="translate(-218.09 -102.54)"/><path class="cls-16" d="M285.76,151.68s5.12-6.89-.74-13.46a125.51,125.51,0,0,1-10.77-6.47s-1.45-1-4.56-6c0,0-1.47,3.32,4.35,10.43a48.13,48.13,0,0,0,8.89,5.69S286.1,146.87,285.76,151.68Z" transform="translate(-218.09 -102.54)"/><path class="cls-17" d="M312,241.88a7.77,7.77,0,0,1,5.32,5.26,9.41,9.41,0,0,1-.91,7.75s-3.29,5.2-7.07,6a29.17,29.17,0,0,0,4.81-8.68C315.59,247.61,312,241.88,312,241.88Z" transform="translate(-218.09 -102.54)"/><path class="cls-18" d="M313.7,241.54s6.42,1.11,8.5,5.19-1.38,12.18-1.38,12.18a21.91,21.91,0,0,1-3.17,4.46s-9.79,10.38-4.12,22.16c0,0-5.59-5.35-5.69-10.57a28.92,28.92,0,0,1,4.93-13.13,59.09,59.09,0,0,0,6.28-8.44S322.28,246.69,313.7,241.54Z" transform="translate(-218.09 -102.54)"/><path class="cls-19" d="M308.15,241.59S300,244.27,301,253c0,0,4,8.13,5.07,11.5,0,0,.59,1.68.28,7.51,0,0,3.12-1.87,2.46-11a48,48,0,0,0-4-9.77S305.1,245.33,308.15,241.59Z" transform="translate(-218.09 -102.54)"/><path class="cls-20" d="M314.63,147.12a7.81,7.81,0,0,1-5.62-5,9.39,9.39,0,0,1,.46-7.78s3-5.39,6.71-6.39a29,29,0,0,0-4.3,8.94C310.74,141.6,314.63,147.12,314.63,147.12Z" transform="translate(-218.09 -102.54)"/><path class="cls-21" d="M312.29,147.64s-6.45-.95-8.64-5,1.08-12.21,1.08-12.21a22.27,22.27,0,0,1,3.06-4.55s9.53-10.62,3.57-22.26c0,0,5.72,5.22,5.95,10.44a28.86,28.86,0,0,1-4.61,13.24,59.51,59.51,0,0,0-6.06,8.6S303.58,142.7,312.29,147.64Z" transform="translate(-218.09 -102.54)"/><path class="cls-22" d="M318.52,147.18s8-3.15,6.48-11.82a123.9,123.9,0,0,1-5.73-11.18s-.69-1.65-.72-7.48c0,0-3,2-1.82,11.16a48.46,48.46,0,0,0,4.55,9.52S321.35,143.28,318.52,147.18Z" transform="translate(-218.09 -102.54)"/><path class="cls-23" d="M261.54,208a7.76,7.76,0,0,1-3.47,6.62,9.38,9.38,0,0,1-7.67,1.4s-5.94-1.62-7.8-5a29.18,29.18,0,0,0,9.71,2.05C257.11,213.11,261.54,208,261.54,208Z" transform="translate(-218.09 -102.54)"/><path class="cls-24" d="M262.61,210.18s.6,6.49-2.79,9.57-12.11,1.85-12.11,1.85a22.32,22.32,0,0,1-5.15-1.9S230,213,220.1,221.51c0,0,3.71-6.79,8.72-8.25a28.89,28.89,0,0,1,14,1.33,59.28,59.28,0,0,0,9.79,3.86S259.88,219.81,262.61,210.18Z" transform="translate(-218.09 -102.54)"/><path class="cls-25" d="M260.69,204.24s-5-7-13-3.49c0,0-6.59,6.23-9.51,8.21,0,0-1.43,1.06-7.1,2.48,0,0,2.7,2.43,11.28-.89a48.33,48.33,0,0,0,8.17-6.67S256.22,202.42,260.69,204.24Z" transform="translate(-218.09 -102.54)"/><path class="cls-26" d="M262.41,174.12a7.79,7.79,0,0,1-6.11,4.31,9.44,9.44,0,0,1-7.47-2.25s-4.55-4.15-4.66-8a29,29,0,0,0,7.7,6.25C256.14,176.61,262.41,174.12,262.41,174.12Z" transform="translate(-218.09 -102.54)"/><path class="cls-27" d="M262.38,176.51s-2.43,6.05-6.85,7.25-11.62-3.89-11.62-3.89a22,22,0,0,1-3.72-4s-8.11-11.72-20.82-8.63c0,0,6.4-4.35,11.53-3.37a28.88,28.88,0,0,1,11.82,7.56,59,59,0,0,0,6.95,7.89S255.55,183.84,262.38,176.51Z" transform="translate(-218.09 -102.54)"/><path class="cls-28" d="M263.38,170.34s-1.22-8.49-10-9a125.57,125.57,0,0,1-12.2,3s-1.77.29-7.46-1c0,0,1.3,3.39,10.45,4.35a48,48,0,0,0,10.31-2.22S260.23,166.69,263.38,170.34Z" transform="translate(-218.09 -102.54)"/><path class="cls-29" d="M282.75,232.86a7.79,7.79,0,0,1,0,7.49,9.39,9.39,0,0,1-6.12,4.82s-6,1.36-9.23-.76a29,29,0,0,0,9.53-2.73C281.21,239.43,282.75,232.86,282.75,232.86Z" transform="translate(-218.09 -102.54)"/><path class="cls-30" d="M284.7,234.26s3.57,5.46,2,9.76-9.84,7.31-9.84,7.31a22.4,22.4,0,0,1-5.43.73s-14.26-.06-19,12.13c0,0,.1-7.74,3.84-11.38a28.84,28.84,0,0,1,13-5.36,60,60,0,0,0,10.45-1.18S286.8,244.05,284.7,234.26Z" transform="translate(-218.09 -102.54)"/><path class="cls-31" d="M280.22,229.91s-7.66-3.87-13.14,3c0,0-2.9,8.6-4.55,11.72,0,0-.77,1.61-5.11,5.51,0,0,3.53.88,9.55-6.07a47.65,47.65,0,0,0,4.09-9.72S275.42,230.39,280.22,229.91Z" transform="translate(-218.09 -102.54)"/><path class="cls-32" d="M305,188.43s-6.57-13.06,8.54-16.09c0,0,14.58.6,8.86,16.09l-8.74,18.72Z" transform="translate(-218.09 -102.54)"/><circle class="cls-33" cx="95.59" cy="78.76" r="4.25"/></svg>